<mxfile host="app.diagrams.net" modified="2022-02-17T07:51:38.667Z" agent="5.0 (Windows NT 10.0; Win64; x64) AppleWebKit/537.36 (KHTML, like Gecko) Chrome/98.0.4758.82 Safari/537.36" etag="wlui-Wl0lFdSLdR0Jumq" version="16.5.6" type="github">
  <diagram id="D2KzV6B70g5t3tSEwKat" name="Page-1">
    <mxGraphModel dx="1038" dy="489" grid="1" gridSize="10" guides="1" tooltips="1" connect="1" arrows="1" fold="1" page="1" pageScale="1" pageWidth="827" pageHeight="1169" math="0" shadow="0">
      <root>
        <mxCell id="0" />
        <mxCell id="1" parent="0" />
        <mxCell id="oPN8op2j5NLYPOw_OKnK-13" style="edgeStyle=none;rounded=0;orthogonalLoop=1;jettySize=auto;html=1;exitX=1;exitY=0.3333333333333333;exitDx=0;exitDy=0;exitPerimeter=0;entryX=0;entryY=0.5;entryDx=0;entryDy=0;startArrow=none;startFill=0;endArrow=classic;endFill=1;" edge="1" parent="1" source="oPN8op2j5NLYPOw_OKnK-2" target="oPN8op2j5NLYPOw_OKnK-5">
          <mxGeometry relative="1" as="geometry" />
        </mxCell>
        <mxCell id="oPN8op2j5NLYPOw_OKnK-14" style="edgeStyle=none;rounded=0;orthogonalLoop=1;jettySize=auto;html=1;exitX=1;exitY=0.3333333333333333;exitDx=0;exitDy=0;exitPerimeter=0;entryX=0;entryY=0.5;entryDx=0;entryDy=0;startArrow=none;startFill=0;endArrow=classic;endFill=1;" edge="1" parent="1" source="oPN8op2j5NLYPOw_OKnK-2" target="oPN8op2j5NLYPOw_OKnK-6">
          <mxGeometry relative="1" as="geometry" />
        </mxCell>
        <mxCell id="oPN8op2j5NLYPOw_OKnK-15" style="edgeStyle=none;rounded=0;orthogonalLoop=1;jettySize=auto;html=1;exitX=1;exitY=0.3333333333333333;exitDx=0;exitDy=0;exitPerimeter=0;entryX=0;entryY=0.5;entryDx=0;entryDy=0;startArrow=none;startFill=0;endArrow=classic;endFill=1;" edge="1" parent="1" source="oPN8op2j5NLYPOw_OKnK-2" target="oPN8op2j5NLYPOw_OKnK-7">
          <mxGeometry relative="1" as="geometry" />
        </mxCell>
        <mxCell id="oPN8op2j5NLYPOw_OKnK-16" style="edgeStyle=none;rounded=0;orthogonalLoop=1;jettySize=auto;html=1;exitX=1;exitY=0.3333333333333333;exitDx=0;exitDy=0;exitPerimeter=0;entryX=0;entryY=0.5;entryDx=0;entryDy=0;startArrow=none;startFill=0;endArrow=classic;endFill=1;" edge="1" parent="1" source="oPN8op2j5NLYPOw_OKnK-2" target="oPN8op2j5NLYPOw_OKnK-8">
          <mxGeometry relative="1" as="geometry" />
        </mxCell>
        <mxCell id="oPN8op2j5NLYPOw_OKnK-17" style="edgeStyle=none;rounded=0;orthogonalLoop=1;jettySize=auto;html=1;exitX=1;exitY=0.3333333333333333;exitDx=0;exitDy=0;exitPerimeter=0;entryX=0;entryY=0.5;entryDx=0;entryDy=0;startArrow=none;startFill=0;endArrow=classic;endFill=1;" edge="1" parent="1" source="oPN8op2j5NLYPOw_OKnK-2" target="oPN8op2j5NLYPOw_OKnK-12">
          <mxGeometry relative="1" as="geometry" />
        </mxCell>
        <mxCell id="oPN8op2j5NLYPOw_OKnK-41" style="edgeStyle=none;rounded=0;orthogonalLoop=1;jettySize=auto;html=1;exitX=1;exitY=0.3333333333333333;exitDx=0;exitDy=0;exitPerimeter=0;entryX=0;entryY=0.5;entryDx=0;entryDy=0;startArrow=none;startFill=0;endArrow=classic;endFill=1;" edge="1" parent="1" source="oPN8op2j5NLYPOw_OKnK-2" target="oPN8op2j5NLYPOw_OKnK-40">
          <mxGeometry relative="1" as="geometry" />
        </mxCell>
        <mxCell id="oPN8op2j5NLYPOw_OKnK-2" value="Player(in game)" style="shape=umlActor;verticalLabelPosition=bottom;verticalAlign=top;html=1;outlineConnect=0;" vertex="1" parent="1">
          <mxGeometry x="150" y="890" width="30" height="60" as="geometry" />
        </mxCell>
        <mxCell id="oPN8op2j5NLYPOw_OKnK-5" value="Check" style="ellipse;whiteSpace=wrap;html=1;" vertex="1" parent="1">
          <mxGeometry x="320" y="820" width="110" height="40" as="geometry" />
        </mxCell>
        <mxCell id="oPN8op2j5NLYPOw_OKnK-11" value="&amp;lt;&amp;lt;Extend&amp;gt;&amp;gt;" style="edgeStyle=none;rounded=0;orthogonalLoop=1;jettySize=auto;html=1;startArrow=classic;startFill=1;endArrow=none;endFill=0;entryX=0;entryY=0.5;entryDx=0;entryDy=0;dashed=1;" edge="1" parent="1" source="oPN8op2j5NLYPOw_OKnK-6" target="oPN8op2j5NLYPOw_OKnK-9">
          <mxGeometry x="0.2462" y="3" relative="1" as="geometry">
            <mxPoint as="offset" />
          </mxGeometry>
        </mxCell>
        <mxCell id="oPN8op2j5NLYPOw_OKnK-6" value="Call" style="ellipse;whiteSpace=wrap;html=1;" vertex="1" parent="1">
          <mxGeometry x="320" y="940" width="110" height="40" as="geometry" />
        </mxCell>
        <mxCell id="oPN8op2j5NLYPOw_OKnK-7" value="Fold" style="ellipse;whiteSpace=wrap;html=1;" vertex="1" parent="1">
          <mxGeometry x="320" y="880" width="110" height="40" as="geometry" />
        </mxCell>
        <mxCell id="oPN8op2j5NLYPOw_OKnK-10" value="&amp;lt;&amp;lt;Extend&amp;gt;&amp;gt;" style="rounded=0;orthogonalLoop=1;jettySize=auto;html=1;entryX=0;entryY=0.5;entryDx=0;entryDy=0;exitX=1;exitY=0.5;exitDx=0;exitDy=0;endArrow=none;endFill=0;startArrow=classic;startFill=1;dashed=1;" edge="1" parent="1" source="oPN8op2j5NLYPOw_OKnK-8" target="oPN8op2j5NLYPOw_OKnK-9">
          <mxGeometry x="0.1521" y="-6" relative="1" as="geometry">
            <mxPoint as="offset" />
          </mxGeometry>
        </mxCell>
        <mxCell id="oPN8op2j5NLYPOw_OKnK-8" value="Raise" style="ellipse;whiteSpace=wrap;html=1;" vertex="1" parent="1">
          <mxGeometry x="320" y="1000" width="110" height="40" as="geometry" />
        </mxCell>
        <mxCell id="oPN8op2j5NLYPOw_OKnK-9" value="All in" style="ellipse;whiteSpace=wrap;html=1;" vertex="1" parent="1">
          <mxGeometry x="540" y="970" width="110" height="40" as="geometry" />
        </mxCell>
        <mxCell id="oPN8op2j5NLYPOw_OKnK-12" value="Chat" style="ellipse;whiteSpace=wrap;html=1;" vertex="1" parent="1">
          <mxGeometry x="320" y="1060" width="110" height="40" as="geometry" />
        </mxCell>
        <mxCell id="oPN8op2j5NLYPOw_OKnK-39" style="edgeStyle=none;rounded=0;orthogonalLoop=1;jettySize=auto;html=1;exitX=1;exitY=0.3333333333333333;exitDx=0;exitDy=0;exitPerimeter=0;entryX=0;entryY=0.5;entryDx=0;entryDy=0;startArrow=none;startFill=0;endArrow=classic;endFill=1;" edge="1" parent="1" source="oPN8op2j5NLYPOw_OKnK-35" target="oPN8op2j5NLYPOw_OKnK-38">
          <mxGeometry relative="1" as="geometry" />
        </mxCell>
        <mxCell id="oPN8op2j5NLYPOw_OKnK-52" style="edgeStyle=none;rounded=0;orthogonalLoop=1;jettySize=auto;html=1;startArrow=none;startFill=0;endArrow=block;endFill=0;" edge="1" parent="1" source="oPN8op2j5NLYPOw_OKnK-35">
          <mxGeometry relative="1" as="geometry">
            <mxPoint x="165" y="650" as="targetPoint" />
          </mxGeometry>
        </mxCell>
        <mxCell id="oPN8op2j5NLYPOw_OKnK-63" style="edgeStyle=none;rounded=0;orthogonalLoop=1;jettySize=auto;html=1;exitX=1;exitY=0.3333333333333333;exitDx=0;exitDy=0;exitPerimeter=0;entryX=0;entryY=0.5;entryDx=0;entryDy=0;fontSize=16;startArrow=none;startFill=0;endArrow=classic;endFill=1;" edge="1" parent="1" source="oPN8op2j5NLYPOw_OKnK-35" target="oPN8op2j5NLYPOw_OKnK-62">
          <mxGeometry relative="1" as="geometry" />
        </mxCell>
        <mxCell id="oPN8op2j5NLYPOw_OKnK-35" value="Host" style="shape=umlActor;verticalLabelPosition=bottom;verticalAlign=top;html=1;" vertex="1" parent="1">
          <mxGeometry x="150" y="690" width="30" height="60" as="geometry" />
        </mxCell>
        <mxCell id="oPN8op2j5NLYPOw_OKnK-54" value="&amp;lt;&amp;lt;Include&amp;gt;&amp;gt;" style="edgeStyle=orthogonalEdgeStyle;rounded=0;orthogonalLoop=1;jettySize=auto;html=1;entryX=1;entryY=0.5;entryDx=0;entryDy=0;startArrow=none;startFill=0;endArrow=classic;endFill=1;curved=1;dashed=1;" edge="1" parent="1" source="oPN8op2j5NLYPOw_OKnK-40" target="oPN8op2j5NLYPOw_OKnK-45">
          <mxGeometry relative="1" as="geometry">
            <Array as="points">
              <mxPoint x="520" y="780" />
              <mxPoint x="520" y="530" />
            </Array>
          </mxGeometry>
        </mxCell>
        <mxCell id="oPN8op2j5NLYPOw_OKnK-40" value="Surrender" style="ellipse;whiteSpace=wrap;html=1;" vertex="1" parent="1">
          <mxGeometry x="320" y="760" width="110" height="40" as="geometry" />
        </mxCell>
        <mxCell id="oPN8op2j5NLYPOw_OKnK-43" style="edgeStyle=none;rounded=0;orthogonalLoop=1;jettySize=auto;html=1;exitX=1;exitY=0.3333333333333333;exitDx=0;exitDy=0;exitPerimeter=0;startArrow=none;startFill=0;endArrow=classic;endFill=1;entryX=0;entryY=0.5;entryDx=0;entryDy=0;" edge="1" parent="1" source="oPN8op2j5NLYPOw_OKnK-42" target="oPN8op2j5NLYPOw_OKnK-44">
          <mxGeometry relative="1" as="geometry">
            <mxPoint x="330" y="430.2941176470588" as="targetPoint" />
          </mxGeometry>
        </mxCell>
        <mxCell id="oPN8op2j5NLYPOw_OKnK-42" value="Observer(Waiting)" style="shape=umlActor;verticalLabelPosition=bottom;verticalAlign=top;html=1;" vertex="1" parent="1">
          <mxGeometry x="150" y="350" width="30" height="60" as="geometry" />
        </mxCell>
        <mxCell id="oPN8op2j5NLYPOw_OKnK-44" value="Join waiting&lt;br&gt;list" style="ellipse;whiteSpace=wrap;html=1;" vertex="1" parent="1">
          <mxGeometry x="320" y="350" width="120" height="40" as="geometry" />
        </mxCell>
        <mxCell id="oPN8op2j5NLYPOw_OKnK-45" value="Quit&amp;nbsp;" style="ellipse;whiteSpace=wrap;html=1;" vertex="1" parent="1">
          <mxGeometry x="320" y="510" width="110" height="40" as="geometry" />
        </mxCell>
        <mxCell id="oPN8op2j5NLYPOw_OKnK-50" style="edgeStyle=none;rounded=0;orthogonalLoop=1;jettySize=auto;html=1;exitX=1;exitY=0.3333333333333333;exitDx=0;exitDy=0;exitPerimeter=0;entryX=0;entryY=0.5;entryDx=0;entryDy=0;startArrow=none;startFill=0;endArrow=classic;endFill=1;" edge="1" parent="1" source="oPN8op2j5NLYPOw_OKnK-48" target="oPN8op2j5NLYPOw_OKnK-45">
          <mxGeometry relative="1" as="geometry" />
        </mxCell>
        <mxCell id="oPN8op2j5NLYPOw_OKnK-51" style="edgeStyle=none;rounded=0;orthogonalLoop=1;jettySize=auto;html=1;exitX=1;exitY=0.3333333333333333;exitDx=0;exitDy=0;exitPerimeter=0;entryX=0;entryY=0.5;entryDx=0;entryDy=0;startArrow=none;startFill=0;endArrow=classic;endFill=1;" edge="1" parent="1" source="oPN8op2j5NLYPOw_OKnK-48" target="oPN8op2j5NLYPOw_OKnK-49">
          <mxGeometry relative="1" as="geometry" />
        </mxCell>
        <mxCell id="oPN8op2j5NLYPOw_OKnK-48" value="Player(Waiting)" style="shape=umlActor;verticalLabelPosition=bottom;verticalAlign=top;html=1;outlineConnect=0;" vertex="1" parent="1">
          <mxGeometry x="150" y="570" width="30" height="60" as="geometry" />
        </mxCell>
        <mxCell id="oPN8op2j5NLYPOw_OKnK-49" value="Leave waiting&lt;br&gt;list" style="ellipse;whiteSpace=wrap;html=1;" vertex="1" parent="1">
          <mxGeometry x="320" y="590" width="110" height="40" as="geometry" />
        </mxCell>
        <mxCell id="oPN8op2j5NLYPOw_OKnK-59" style="rounded=0;orthogonalLoop=1;jettySize=auto;html=1;exitX=1;exitY=0.3333333333333333;exitDx=0;exitDy=0;exitPerimeter=0;entryX=0;entryY=0.5;entryDx=0;entryDy=0;startArrow=none;startFill=0;endArrow=classic;endFill=1;" edge="1" parent="1" source="oPN8op2j5NLYPOw_OKnK-55" target="oPN8op2j5NLYPOw_OKnK-45">
          <mxGeometry relative="1" as="geometry" />
        </mxCell>
        <mxCell id="oPN8op2j5NLYPOw_OKnK-60" style="edgeStyle=none;rounded=0;orthogonalLoop=1;jettySize=auto;html=1;startArrow=none;startFill=0;endArrow=block;endFill=0;" edge="1" parent="1" source="oPN8op2j5NLYPOw_OKnK-55">
          <mxGeometry relative="1" as="geometry">
            <mxPoint x="165" y="430" as="targetPoint" />
          </mxGeometry>
        </mxCell>
        <mxCell id="oPN8op2j5NLYPOw_OKnK-55" value="Observer(In game)" style="shape=umlActor;verticalLabelPosition=bottom;verticalAlign=top;html=1;" vertex="1" parent="1">
          <mxGeometry x="150" y="460" width="30" height="60" as="geometry" />
        </mxCell>
        <mxCell id="oPN8op2j5NLYPOw_OKnK-61" value="Game Room" style="swimlane;startSize=0;labelPosition=center;verticalLabelPosition=top;align=center;verticalAlign=bottom;fontSize=16;" vertex="1" parent="1">
          <mxGeometry x="250" y="330" width="410" height="810" as="geometry" />
        </mxCell>
        <mxCell id="oPN8op2j5NLYPOw_OKnK-38" value="Start Game" style="ellipse;whiteSpace=wrap;html=1;" vertex="1" parent="oPN8op2j5NLYPOw_OKnK-61">
          <mxGeometry x="70" y="320" width="110" height="40" as="geometry" />
        </mxCell>
        <mxCell id="oPN8op2j5NLYPOw_OKnK-62" value="Kick player" style="ellipse;whiteSpace=wrap;html=1;" vertex="1" parent="oPN8op2j5NLYPOw_OKnK-61">
          <mxGeometry x="70" y="370" width="110" height="40" as="geometry" />
        </mxCell>
      </root>
    </mxGraphModel>
  </diagram>
</mxfile>
